<?xml version="1.0" encoding="utf-8"?>
<!-- Generator: Adobe Illustrator 16.0.4, SVG Export Plug-In . SVG Version: 6.00 Build 0)  -->
<!DOCTYPE svg PUBLIC "-//W3C//DTD SVG 1.1//EN" "http://www.w3.org/Graphics/SVG/1.1/DTD/svg11.dtd">
<svg version="1.1" id="Layer_1" xmlns="http://www.w3.org/2000/svg" xmlns:xlink="http://www.w3.org/1999/xlink" x="0px" y="0px"
	 width="540.972px" height="297.348px" viewBox="0 0 540.972 297.348" enable-background="new 0 0 540.972 297.348"
	 xml:space="preserve">
<g>
	<g>
		<defs>
			<rect id="SVGID_1_" x="157.765" width="224.683" height="224.238"/>
		</defs>
		<clipPath id="SVGID_2_">
			<use xlink:href="#SVGID_1_"  overflow="visible"/>
		</clipPath>
		<path clip-path="url(#SVGID_2_)" fill="#1D1D1B" d="M237.462,30.569c6.618,5.72,13.274,12.229,19.871,18.34h0.439L283.1,0
			l3.711,13.755l8.517,32.974c0.063,1.309,0.721,2.333,1.09,3.494l1.748-0.874l42.361-26.859l-0.441,2.181l-7.638,26.86
			c-0.391,1.561-0.602,2.189-0.654,2.618c-2.077,6.16-3.39,12.6-5.46,18.777l8.298,0.223l44.759-0.877l-37.118,40.399l2.622,2.4
			l37.555,28.602l-0.657,0.438l-9.168,0.871l-37.992,4.372c-1.314-0.112-0.809,1.417-0.439,1.964l10.922,25.548l7.859,18.559
			c-0.439,0.152-0.437-0.051-1.05-0.204l-0.699-0.451l-42.795-18.344h-0.218c-0.989,10.703-0.765,22.209-1.529,32.75
			c-0.049,4.305,0.171,9.826-0.22,13.762c-0.764-0.654-1.328-1.222-2.181-2.187c-2.23-2.356-3.087-3.964-5.664-5.974l-0.844-0.844
			l-0.485-0.822l-24.233-26.859l-2.618,2.626l-27.949,32.09c-0.857,0.958-2.188,2.399-3.065,3.271l0.007-1.302l-1.314-13.104
			l-3.93-34.06l-0.215-0.223l-23.581,5.244c-0.22-0.065-0.928,0.228-1.036,0.337l-1.26,0.212l-4.037,0.976l-21.401,4.809
			l-0.217-0.223l24.021-45.634l-0.657-0.657l-15.065-4.581l-32.973-10.266l19.872-10.038l25.98-12.666l0.44-0.443l-25.111-28.163
			l-8.954-10.044l0.437-0.219l30.135,1.749l22.053,1.309l0.219-1.529l-4.811-53.276l0.224-0.22l18.343,17.251"/>
		<path clip-path="url(#SVGID_2_)" fill-rule="evenodd" clip-rule="evenodd" fill="#F67D4B" d="M282.008,6.548
			c1.264,1.902,0.282,4.196,0.868,6.115c1.272,0.369,0.288,1.749,0.876,2.401c0.616,1.791,2.732,3.54,1.312,5.679
			c0.981,1.683,0.654,3.927,1.967,5.461c-0.547,1.417,1.308,1.788,0.656,3.273c1.744,0.374,0.764,2.335,2.181,3.058
			c0.177,1.744-0.373,3.93,0.435,5.891c-0.258,1.422,1.051,2.123,0.875,3.498c0.434,0.438-0.042,1.025-0.218,1.529
			c0.828,1.089,0.063,3.055,1.53,3.71c0.324,0.874-0.702,1.463,0.436,1.966c-0.701,0.807-1.533,1.898-0.876,3.053
			c-2.989-0.824-6.265-1.048-9.392-1.523l-1.307-0.657c-6.701-0.611-14.518-1.812-20.96,0.222c2.396-1.161-0.369-3.562,1.749-4.809
			c-0.374-1.705,1.416-1.961,1.961-3.273c2.074-2.25,2.181-5.243,3.278-7.861c0.5-0.503,1.155-0.938,0.872-1.744
			c1.853-0.77,1.592-3.014,3.495-3.715c0.609-0.828-0.221-1.31,0.215-2.182c2.355-1.203,0.725-4.438,3.062-5.243
			c0-1.199,1.742-1.199,1.742-2.401c-0.262-1.199,1.812-2.288,1.528-3.273c-0.218-2.36,3.058-3.274,2.183-5.895
			C282.443,9.173,279.669,6.484,282.008,6.548"/>
		<path clip-path="url(#SVGID_2_)" fill-rule="evenodd" clip-rule="evenodd" fill="#F67D4B" d="M222.836,20.743
			c1.197-0.107,1.92,0.981,2.838,1.529c-0.222,1.961,1.92,2.991,2.181,4.804l0.44,0.435l0.432-0.435
			c-0.107,0.323,0.284,0.435,0.44,0.652c0.391-0.391,1.046-0.177,1.524-0.218c0.398,0.918,1.422,1.31,2.186,1.746
			c0.11-0.283,0.442-0.217,0.657-0.217l-0.215,0.217c0.391,1.092,2.027,1.898,1.087,3.278c1.265,1.241,2.469,1.854,3.495,3.495
			c0.765-0.288,0.503,0.584,0.872,0.867c1.636,3.607,5.96,1.528,7.42,4.587c-0.21,0.55,0.437,0.701,0.662,1.092
			c2.14,0.222,3.117,3.275,5.239,3.495c1.59,1.353,1.092,2.99,2.181,4.587c-3.93-0.503-6.05,3.319-9.606,3.71
			c-5.024,3.427-10.263,6.377-15.065,10.263c-1.856,0.44-2.625,2.445-3.93,3.707l-0.437-0.429c0.068-0.633-0.214-7.953,0-8.302
			c-0.92-2.289-1.465-5.085-0.439-7.641c-1.571-0.981-0.481-3.058-1.747-4.146c0-0.94,0.764-1.599,1.095-2.406
			c-1.749-3.93,0.717-8.036-1.966-11.57c1.308-3.009-1.637-5.852,0-8.954c-1.42-1.375-0.328-3.881-1.75-5.238l-0.217-1.749
			C222.074,17.839,220.975,20.567,222.836,20.743"/>
		<path clip-path="url(#SVGID_2_)" fill-rule="evenodd" clip-rule="evenodd" fill="#F67D4B" d="M334.631,33.844
			c0.502,1.788-1.903,2.951-0.439,4.582c-0.348,3.578-3.864,5.352-3.059,9.174c-0.806,0.481-0.104,1.573-0.654,2.182
			c-1.136,0.261-0.366,1.903-1.528,2.186l-0.65,0.652c0.391,2.995-0.919,6.267-0.88,9.394c-0.695,0.544-1.572,0.652-2.183,1.529
			c0.61,2.288,1.096,4.628-0.433,6.328c-0.589,0-0.984,1.353-1.966,0.872c-3.754-4.582-8.671-8.253-13.104-12.225
			c-4.476-0.503-7.426-4.761-12.007-5.026l-1.093-0.652c2.689-0.545,4.434-3.38,7.203-3.71c1.314-0.55,2.582-1.375,3.715-2.4
			c0.283-1.812,2.403-1.926,3.71-2.621c1.817-0.286,3.827-0.442,4.805-2.184c0.552-1.482,0.984-2.841,2.621-3.498
			c1.92,0.657,3.489-0.935,5.023-1.961V36.03c4.32-3.495,8.705-5.417,13.294-8.258C335.917,30.002,336.223,31.812,334.631,33.844"/>
		<path clip-path="url(#SVGID_2_)" fill="#FFDD30" d="M268.907,52.182c2.401-0.824,5.352-0.391,7.641,0.438
			c1.16,0.113,1.746-1.089,3.058-0.652c1.854,1.46,4.543,1.681,6.769,1.524c1.483-0.064,3.013,1.686,4.151,0.445
			c1.524,0.692,3.994,0.148,4.582,2.181c2.621-0.655,4.475,1.897,6.983,2.186c0.832,0.477,2.036-0.067,2.842,0.433
			c0.616,2.225,3.018,2.944,4.803,3.71c0.656-0.392,1.309,0.594,1.966,0.877c0.984,1.636,2.289,3.93,4.367,4.365
			c0.872,1.094,1.969,2.623,3.498,2.623c0.175,1.463,1.698,1.742,1.743,3.272c1.049,1.746,3.384,2.774,3.713,5.024
			c1.482,1.896,2.513,4.365,4.801,6.109c-1.088,1.638,0.068,3.428,0.873,4.806c0.828,0.653,2.249,0.653,2.404,1.968
			c0.611,1.309-0.373,3.314,0.872,4.362c-0.808,0.919,1.09,1.245,0.434,2.405c1.313,1.854,1.968,3.931,1.968,6.331
			c0.394,0.657,1.051,0.544,1.529,0.874c0,0.916-0.979,2.01,0,2.841c-0.871,1.417,0.94,2.335,0,3.71
			c-1.354,1.679,0.833,3.823-0.216,5.896c-3.496,3.165-0.263,9.061-3.281,12.444c0.332,0.326-0.369,0.872-0.434,1.311
			c0.551,3.32-0.872,6.377-1.313,9.606c-2.181,1.201-0.975,4.196-3.273,5.02c-0.043,1.245-1.566,2.187-1.309,3.278
			c-1.636,0.808-2.229,2.729-3.055,4.148l-4.372,5.677l0.225,0.22c-0.545,1.196-2.406,1.089-2.621,2.619
			c-1.35-0.658-1.966,1.308-2.618,1.527c-1.092,0.589-0.437,2.337-1.966,2.401c-0.984-0.064-1.903,0.877-2.188,1.534
			c-4.26,3.165-9.391,4.037-13.102,8.512c-2.226-0.283-4.362,1.138-6.33,2.181c-1.354,0.048-2.883-0.283-3.711,1.093
			c-0.437-0.062-0.983,0.152-1.308-0.217c-1.032,2.116-2.448-0.281-3.711,0.873h-2.844c0-0.391-0.435-0.61-0.653-0.873
			c-1.679,1.465-3.101-2.358-4.8-0.219c-0.765,0.112-1.25-0.503-1.748,0.436v0.656c-1.529,0.153-2.775-0.285-4.153-0.435
			c-0.542,0.476-1.091-0.438-1.743-0.438c-1.031-0.175-2.514,0.547-3.058-0.876c-1.466,0.77-1.417-1.417-2.623-0.651
			c-1.964-2.141-5.498-1.269-8.08-2.401c-1.089,1.021-1.632,0.261-2.616-0.439c-1.683-0.828-3.712-0.828-5.019-2.618l-2.186-0.221
			c0.215-0.545-0.437-0.72-0.657-1.089c-0.984-0.179-1.749-1.705-3.053-1.528c-1.421-0.328-0.706-2.471-2.406-2.842
			c-0.544-0.607-1.416-1.484-2.4-1.528c-0.438,0.264-1.031-0.5-1.747-0.212c0.396-0.55,0.176-1.317,0.217-1.972
			c-0.324-1.526-2.296-0.061-2.181-1.743c-1.094-1.482-2.73-1.97-3.715-3.278c-0.588,0.262-1.089,0.154-1.524-0.436l-0.222-0.874
			c-1.856-1.919-5.021-2.139-5.896-5.021c-4.189-3.276-4.914-8.586-8.731-12.012c-0.594-2.293-0.437-4.979-1.749-6.986
			c1.483-1.047-0.982-1.749,0-2.84c-1.246-1.048,0.723-2.577-0.877-3.49c0.943-2.186-2.073-3.823,0.22-5.459
			c-0.262-2.074-0.262-3.49-0.872-5.464c1.702-1.197,0.547-2.794,0.872-4.582c-2.448-2.511,0-5.676-0.432-8.734
			c1.377-0.72,0.063-2.513,0.871-3.277c-0.373-2.398,1.967-3.603,1.747-5.892c1.267-0.764,0.176-2.469,1.744-3.057
			c-0.257-1.202,0.437-1.417,1.092-2.181c-0.328-3.564,4.696-4.261,4.151-7.863c1.642-0.872,1.857-2.401,3.491-3.277
			c-0.218-0.657,0.723-0.545,1.096-0.657c2.509-1.915,2.074-4.973,4.802-6.768c0.064-0.611,0.325-1.087,0.87-1.525
			c0.283,0.042,0.723-0.175,0.877,0.217c2.185-1.744,4.325-3.493,6.767-4.588c2.252-0.543,3.781-2.729,6.116-3.053
			c0.718-1.161,1.156-2.685,2.181-3.493c2.074,0.327,4.653,1.307,6.553,0c0.831-0.939,2.071-1.705,2.401-2.838
			c0.98-0.332,2.288-0.332,3.278,0c3.012-0.983,6.548-0.656,9.386-1.969C267.049,51.855,268.212,51.464,268.907,52.182"/>
		<path clip-path="url(#SVGID_2_)" fill="#1D1D1B" d="M262.787,64.846c-0.696,2.994-1.524,5.896-3.053,8.522
			c0.396,0.913-0.811,1.743,0.219,2.396c0.834,2.015-2.557,3.062-0.434,4.809c0.76,1.964-0.437,3.642-0.657,5.459
			c-0.872,0.589-1.138,1.461-1.314,2.396c0.508,2.736-2.001,6.054,0.442,8.522c-0.154,1.634-2.299,1.854-1.966,3.71
			c-1.092,0.765,0.063,5.896-1.966,5.244c0.391-2.298,1.157-7.425,0.437-9.611c1.268-1.749,1.92-4.038,1.309-6.336
			c-1.309,1.683-3.38,1.967-4.587,3.495c-3.094,1.466-7.64,2.01-10.478-0.438c-6.88-6.066-3.602-16.808-1.966-24.232l1.529-3.059
			l0.437,0.221c-1.641,2.769-1.57,6.372-1.966,9.386c0.501,2.62,0.064,5.395-0.657,8.082c-0.654,1.46,0.686,3.317,0.838,5.016
			c1.094,3.389,3.925,4.305,7.029,4.587c4.257,0.374,6.829-1.699,9.821-4.361c0.691-4.807,2.469-8.192,2.186-12.889
			c0.765-4.214,1.744-8.468,3.053-12.441C261.807,63.366,262.464,64.238,262.787,64.846"/>
		<path clip-path="url(#SVGID_2_)" fill="#1D1D1B" d="M289.648,65.503c-0.807,3.165-0.041,6.924-1.528,9.826
			c-0.218,1.968,1.267,3.278,1.092,5.243c1.091,0.369,0.615,1.749,0.437,2.4c-1.683,1.467-1.139,3.932-2.186,5.68
			c0.615,0.54,1.204,1.09,1.092,1.961c2.623,2.229,6.445,2.118,9.825,1.749c6.287-0.872,7.646-7.491,10.703-12.013
			c0.94-1.701,1.089-6.981,2.511-6.767c-0.55,4.151-2.447,9.215-4.26,12.663c0.438,1.315-1.964,1.202-1.092,2.406
			c-1.351,2.77-4.259,3.602-6.548,5.019c-3.757,0.919-8.083,0.482-10.917-2.181c-0.479,1.09-0.764,2.289-1.09,3.495
			c-0.877,0.543-0.112,1.744-0.656,2.396c-0.547-5.347,1.195-11.307-0.657-16.375c0-0.723-0.151-1.594,0.657-1.963
			c0.324-4.367-0.657-8.478,0-12.664c-0.375-0.437-1.135-1.309-0.221-1.749C287.857,65.396,289.167,63.974,289.648,65.503"/>
		<path clip-path="url(#SVGID_2_)" fill-rule="evenodd" clip-rule="evenodd" fill="#F67D4B" d="M204.274,98.91
			c-0.11-0.764,0.938-1.309,0-1.528c-1.309,0.112-1.026-1.593-1.966-2.187c-3.273-1.042-2.069-4.865-5.239-5.673
			c0.107-2.618-3.493-1.961-3.715-3.934c-2.333-0.935-2.225-3.991-4.363-5.017c-0.549-0.94-1.465-1.817-2.62-1.746
			c1.155-1.487-1.859-1.204-0.877-2.84c-0.872-1.048-2.772-1.417-2.618-3.061c-3.21-1.526-4.738-4.32-7.645-6.546
			c1.16,0.477,1.094,0.872,2.186,0.652l0.437,0.438c1.155-0.326,2.027,0.658,3.056,0c1.089,1.197,2.901,1.241,4.372,0.867
			c0.935,2.121,2.288-0.65,3.49,0.88c2.73-1.422,6.506-1.747,9.168,0c2.074,0.26,3.931,0.481,5.897-0.222
			c2.249,1.094,3.671-1.087,5.896-0.658c0.984,0.268,2.181,0.224,3.273,0.224c1.048,0.656,1.201,2.005,2.405,2.181
			c0.828-0.941,2.074-0.941,3.273-0.872c0.325,1.138,1.529,1.903,2.623,2.183v0.438c-4.195,3.973-7.468,8.341-9.825,13.098
			c-0.113,2.838-2.294,4.854-3.058,7.425"/>
		<path clip-path="url(#SVGID_2_)" fill-rule="evenodd" clip-rule="evenodd" fill="#F67D4B" d="M373.277,73.805
			c-0.152,0.583,1.484,0.652,0.651,0.652c-1.021-0.176-1.632,1.028-1.959,1.749c-1.03,1.416-2.774,2.838-3.5,4.582
			c-1.133,2.293-4.474,1.201-4.582,4.149c-0.983,1.309-2.072,3.388-3.715,3.715c-1.304,1.09-1.523,2.945-3.49,2.838
			c-1.421,0.369-0.656,2.838-2.62,2.4c-0.438,2.512-4.411,2.946-3.715,5.892c-0.873,0.811-1.134,1.903-1.31,3.062
			c-2.95,0.54-2.95,4.037-5.894,4.582c-0.654,0.33-0.433,1.026-0.654,1.529c-0.659,0.325-1.028-0.652-1.526,0
			c-1.313-2.032,0-5.527-1.967-7.422c-0.373-5.308-4.303-9.13-5.239-14.196c-2.559-3.775-4.195-7.925-6.992-11.574
			c0-0.215,0.068-0.543-0.215-0.652c1.092,0.806,2.291-0.724,3.272,0.438c1.642-1.161,3.601,0.481,5.239-0.652
			c0.877,0.589,1.861,0.765,2.841,0.215c2.838-0.435,5.745,2.774,7.861,0c2.25-0.938,3.491,1.79,5.459,0.218
			c1.92,0.049,4.038-1.155,5.678,0.22c1.597,0.327,2.508-0.979,3.929-1.092c3.449,3.866,6.179-0.941,10.266,0.654
			C372.181,74.021,371.64,73.583,373.277,73.805"/>
		<path clip-path="url(#SVGID_2_)" fill="#1D1D1B" d="M249.688,74.021c-0.977,2.072,2.582,2.773,1.749,5.023
			c-1.893-0.613-3.93,2.881-5.019-0.218c1.089-1.16-1.419-3.781,1.309-3.497C248.052,74.569,248.662,71.662,249.688,74.021"/>
		<path clip-path="url(#SVGID_2_)" fill="#1D1D1B" d="M301.003,74.896c-0.261,1.09-2.114,2.073-0.874,3.272
			c-0.264,0.919,0.501,1.746,0.222,2.403c-0.485-0.18-0.877-0.613-1.534-0.438l-0.437,0.653l-2.833-1.309
			c0.607-1.376-0.48-4.215,1.741-4.15c0.508-1.593,2.037,0.373,2.841-0.872C300.522,74.281,300.742,74.677,301.003,74.896"/>
		<path clip-path="url(#SVGID_2_)" fill="#1D1D1B" d="M288.12,102.188c0.178,1.025,1.092,1.196,1.528,2.181
			c-1.094,1.246-0.545,3.17-1.31,4.587c0.171,1.202,0.722,2.992-0.437,3.93c0,0.545,0.218,0.981,0.652,1.31
			c0.721-0.108,1.598,0.327,1.529,1.089c-0.107,1.317-0.917,2.294-1.745,3.278c-1.746-0.221-2.838-2.401-4.587-1.961l-0.876-0.657
			c-2.987-0.66-6.11,0.324-8.949,0c-3.207,2.555-7.03-1.2-10.478,0c-1.795-0.724-3.647,0.479-5.459-0.215
			c-1.575,0.913-3.207-0.069-4.804,0.872l-2.887-1.317c6.875-1.15,14.134,0.269,21.01-0.869l3.275,0.656l12.447-0.656
			c0.611-1.156-0.152-2.36-0.221-3.493l0.221-0.22l-0.877-7.424c0.544-1.525,0.764-3.496,0.656-5.021l0.221-0.22
			C288.078,99.393,286.764,101.14,288.12,102.188"/>
		<polygon clip-path="url(#SVGID_2_)" fill="#1D1D1B" points="253.838,107.207 254.058,105.678 254.275,106.335 		"/>
		<path clip-path="url(#SVGID_2_)" fill-rule="evenodd" clip-rule="evenodd" fill="#F67D4B" d="M205.366,106.775
			c-2.951,3.863,2.032,6.917-0.22,11.135c0,4.254,1.704,8.121,1.529,12.227c0.066,0.871-0.149,2.442,0.219,3.495
			c0.985,1.529,1.637,3.16,1.75,5.02c-1.359,0-2.118-1.373-3.713-0.874c-0.811-1.638-2.777-0.499-3.71-1.744
			c-1.314,0.432-0.596-1.315-1.747-1.315c-0.92,0.042-1.861,0.042-2.405-0.872c-2.401-0.872-4.914,1.968-6.116-1.309
			c-1.197-0.547-2.55-0.61-3.49-1.749c-2.181-0.717-4.849,1.251-6.116-1.308c-2.882,0.373-4.956-2.468-7.64-1.308
			c-1.309,0.152-1.966-1.27-3.058-1.534l-6.333-1.089c2.403-0.107,3.388-4.26,6.113-2.839c1.053-0.106,1.813-0.978,2.836-1.091
			c0.398-0.611,1.421-0.872,1.099-1.749c1.7-2.181,4.362-0.176,6.326-1.746c1.924,0.591,2.95-1.268,3.932-2.396l-0.217-0.877
			c2.137,0.588,2.945-2.032,5.239-1.093c0.063,0.436,0.613,0.696,0.877,1.093c2.068,0.368,2.618-3.015,4.799-2.406
			c0.94-1.852,3.781-1.524,3.498-3.931c3.013,1.529,1.961-3.816,4.799-1.309C204.34,107.361,204.777,106.924,205.366,106.775"/>
		<path clip-path="url(#SVGID_2_)" fill="#1D1D1B" d="M253.403,111.143l-0.217,0.215c-0.267-0.328-0.152-1.853,0.217-2.185
			C253.51,109.505,253.469,110.702,253.403,111.143"/>
		<path clip-path="url(#SVGID_2_)" fill-rule="evenodd" clip-rule="evenodd" fill="#F67D4B" d="M344.236,118.999
			c0.94,0.765,2.14,1.749,3.496,1.969c0.498,0.766,1.267,0.872,1.963,1.087c0.828,1.31,2.142,2.295,3.71,2.187
			c0.176,1.35,1.856,0.871,2.621,1.746c-0.809,2.555,2.25,0.651,2.402,2.62c0.98,1.57,2.951,1.747,3.715,3.496
			c0.867,0.656,2.572,1.133,3.054,2.181l4.587,2.62c0.215,0.652,0.545,1.461,1.312,1.747c2.618-0.177,3.056,1.578,5.02,3.058
			c-2.187,0.044-3.71,0.156-6.116-0.438c-2.554,0.914-5.126,1.791-8.077,1.749c-1.307-1.705-3.21-0.327-4.802-0.226
			c-1.902,3.105-6.115,1.363-8.954,1.534c-0.368,0.155-0.657,0.589-1.094,0.652c-1.959-0.61-4.519,0.153-6.767,0.22
			c-1.569,1.639-3.273,0.918-5.46,1.09c0-0.391-0.439-0.609-0.654-0.872h-0.875c1.484-1.484-0.265-4.317,1.529-5.676
			c0-2.187,1.704-3.71,1.746-5.897c0.503-1.154,0.723-2.399,1.312-3.491c-0.26-1.266,0.394-2.138,0.875-3.059
			c0.395-2.838,1.052-5.783,1.091-8.514c0.611-0.984,0.721-2.401,0.437-3.498c0.221-0.432,0.221-0.828,0.872-0.652
			C342.226,115.617,344.088,117.36,344.236,118.999"/>
		<path clip-path="url(#SVGID_2_)" fill="#1D1D1B" d="M256.024,146.078c2.134,1.898,5.239,2.443,7.862,3.71
			c3.273-0.503,6.983,1.417,10.041-0.435c0.22,0.044,0.332-0.112,0.439-0.223c0.936,0.223,2.25,0,3.058-0.653
			c3.555-1.158,6.549-3.666,9.823-5.457l3.493-3.497c-0.571,2.122-1.768,2.229-3.277,4.149c-1.898,2.117-4.475,3.274-6.334,5.024
			c-1.354,0.15-2.175,1.748-3.268,2.62c-1.139,0.369-2.405,1.089-3.495,0.875c-0.48,0-1.03-0.11-1.312,0.434
			c-1.094-0.391-2.079,0.657-3.275,0.657c-1.969-0.068-3.647-0.725-5.459-1.091c-0.545-0.069-1.749,0.15-2.401-0.224
			c-3.647-1.198-7.686-3.228-9.611-6.768c-0.589-1.416-2.162-2.77-2.582-4.081l-0.691-1.815
			C250.463,142.795,253.577,143.714,256.024,146.078"/>
		<path clip-path="url(#SVGID_2_)" fill-rule="evenodd" clip-rule="evenodd" fill="#F67D4B" d="M211.699,145.419
			c3.231,1.9,3.776,5.134,6.55,7.645c1.268,2.663,2.946,4.802,5.459,6.769c0.875,4.149,6.221,4.369,7.205,8.296
			c1.422,1.465,3.058,2.338,4.587,3.498c-1.314,0.759-4.303-1.749-4.367,1.31c-0.984,0.106-1.902,0.806-2.406,1.749
			c0.064-0.445,0.504-0.724,0.658-1.098c-2.074-1.416-3.711,0.766-5.897,0.438c-1.091-0.763-2.337,0.589-3.49,0.872
			c-1.749,0.106-4.303-0.438-5.678,1.312c-2.23,1.854-7.035-1.205-7.86,2.618c-1.463,0.044-3.608-0.17-5.239,0.22
			c-1.639,1.684-4.629,0.154-6.118,2.182c-1.964,0.48-4.477,0.7-6.546,1.533c0.498-0.55,0.498-1.268,1.087-1.749
			c-0.22-0.55,0.22-1.421,0.657-1.966c0.22-0.062,0.325,0.112,0.437,0.219c0.984-0.438,0.547-1.421,0.654-2.185
			c1.266-0.499,0.284-2.289,0.875-3.273c0.322-1.422,2.071-1.636,1.964-3.277c1.961-0.72,0.652-3.165,2.181-3.71
			c0.219-1.09,2.249-1.09,1.314-2.405c-0.438-1.7,1.631-2.289,1.309-3.926c1.812-1.05,2.186-3.387,3.493-5.029
			c-0.327-1.19,2.137-1.149,1.309-2.396c0.327-1.528,0.112-3.494,1.529-4.366c0.828-0.064,1.528-0.33,2.181-0.872
			c-0.262-0.878-0.322-1.859-0.433-2.844c0.545,0,0.98-0.216,1.31-0.652c-0.374-0.935,0.61-1.309,1.091-1.744
			C211,142.629,210.781,144.544,211.699,145.419"/>
		<path clip-path="url(#SVGID_2_)" fill-rule="evenodd" clip-rule="evenodd" fill="#F67D4B" d="M332.882,152.626
			c-0.699,2.555,0.61,3.755,1.524,5.676c3.062,2.187-0.215,7.576,3.934,8.737c0.504,1.089,0.766,2.293,1.092,3.49
			c-1.68,1.749,1.266,3.212,0.874,5.244c0.284,0.435,1.048,0.651,0.872,1.307c-0.152,0.806,0.766,1.683,1.534,2.401
			c0.98-0.062,1.593,1.248,2.182,1.971c-0.481,1.133-0.919,2.506-0.223,3.71c0.875,0.588,1.922,0.652,2.623,1.529l2.181,3.272
			c-1.353-0.066-1.966-1.92-3.494-1.528c-1.744-2.072-4.955-1.156-6.33-3.714c-0.584,0-1.311,0.985-1.747,0
			c0.284-0.827-0.371-1.265-0.871-1.745c-1.744,0.152-3.76-0.284-5.68-0.436c-0.874-1.854-3.319-0.764-4.366-2.618
			c-0.653,0-0.919-0.332-1.093-0.877c-1.746-2.688-6.221-0.22-7.425-2.838c-1.564-3.498-6.987-0.107-7.205-4.582
			c2.62-3.39,6.773-4.37,8.732-7.865l-0.213-0.22c1.634-0.283,2.14-2.181,3.056-3.27c3.382-3.347,4.372-7.929,8.077-10.918
			C331.421,150.333,331.524,151.793,332.882,152.626"/>
		<path clip-path="url(#SVGID_2_)" fill-rule="evenodd" clip-rule="evenodd" fill="#F67D4B" d="M246.855,176.646
			c1.92,1.092,4.101,1.416,6.111,2.181l4.367,1.969c5.415-0.396,9.933,1.462,15.065,1.746l-0.652,0.652
			c0.396,0.332,0.72,0.872,1.309,0.654c-0.656-0.391-1.138,0.812-1.529-0.215c-0.698,1.31-1.902,2.401-2.18,3.93
			c-1.031-0.283-1.749,0.325-2.404,1.09c-0.376,1.027,0.064,2.4-1.311,3.058c-1.353-0.545-1.854,0.918-2.843,1.31
			c0,1.636-2.726,1.312-2.396,3.277c-0.657,0.151-1.246,0.477-1.749,1.091c-0.149,1.684-2.726,1.854-2.838,3.71
			c-1.246,2.341-4.694,2.951-4.367,6.116c-0.435,3.271-5.132,2.293-5.244,5.896v1.089c-0.652,0.044-1.129-0.872-1.744-0.217
			c-0.764,1.089-1.138,2.34-1.309,3.715l-0.652,0.651c-0.156-2.356-1.578-5.085-0.44-7.645c-1.245-1.197-1.245-3.49-0.874-4.801
			c-0.547-1.636-1.744-3.495-0.654-5.239c0.434-0.288,0.498-0.721,0.219-1.094c0.723-2.141,0.498-4.102,0.215-6.331
			c-0.545-1.048-2.662-0.503-1.959-2.187c0.386,0,0.611-0.433,0.867-0.651c0.728-1.156-1.523-1.38-0.432-2.401
			c-1.091-0.828-0.549-2.293-1.314-3.278c-0.215-0.716,0.765-1.479-0.215-1.961c2.289-2.073-0.701-4.151,0.215-6.772
			c1.265-0.108,0.288-1.592,0.879-2.182C241.787,174.283,243.685,177.08,246.855,176.646"/>
		<path clip-path="url(#SVGID_2_)" fill-rule="evenodd" clip-rule="evenodd" fill="#F67D4B" d="M305.805,180.36
			c-1.749,2.508-0.215,5.498-1.309,8.292c0.657,1.312,0.657,2.621,0,3.935c1.202,0.979-0.542,2.293,0.657,3.273
			c-1.245,1.245,0.716,3.057-0.872,4.146c0.386,2.011-1.79,4.042,0.215,5.68c-1.417,1.308,1.641,3.167,0.437,4.586
			c-0.381-1.577-0.686,8.121,0.438,6.548c-1.416-1.048-1.462-3.058-3.279-4.149c0.068-1.417-0.804-2.47-1.74-3.496
			c-0.877-0.321-0.877-1.812-1.971-2.396c-1.092,0-1.567,0.26-1.963-0.876c-2.513-1.593-3.427-3.779-5.457-5.676
			c0.106-0.872-1.199-1.093-1.092-1.968c-3.17-1.595-4.083-5.632-7.644-6.114c-0.481-2.51-2.229-5.085-4.363-6.331
			c-0.329-0.652-1.03-0.436-1.529-0.652c1.632-0.765-0.329-1.637,0-2.621c7.594,0.183,21.372-0.946,29.693-7.425
			C307.398,176.254,304.784,178.87,305.805,180.36"/>
		<polygon clip-path="url(#SVGID_2_)" fill="#1D1D1B" points="287.282,74.847 286.82,103.544 288.486,103.033 288.451,74.252 		"/>
		<polyline clip-path="url(#SVGID_2_)" fill="#1D1D1B" points="261.021,68.344 256.522,96.016 255.018,95.681 259.854,68.344 
			260.686,68.011 		"/>
	</g>
	<path fill="#FFFFFF" d="M511.492,293.182h7.671v-19.776h0.092l14.232,19.776h7.484v-34.933h-7.67v18.53h-0.092l-12.43-18.53h-9.288
		V293.182z M505.555,258.249h-7.671v20.932c0,5.36-2.125,7.162-6.007,7.162c-2.402,0-5.545-1.293-5.545-6.099v-21.995h-9.98v22.873
		c0,5.637,2.772,12.707,14.324,12.707c11.737,0,14.879-6.885,14.879-13.169V258.249z M430.676,293.182h7.67v-24.675h0.094
		l8.132,24.675h5.961l7.809-24.675h0.092v24.675h9.981v-34.933h-14.232l-5.359,16.728h-0.092l-5.546-16.728h-14.509V293.182z
		 M384.986,293.182h7.671v-24.675h0.092l8.133,24.675h5.96l7.81-24.675h0.093v24.675h9.98v-34.933h-14.231l-5.36,16.728h-0.093
		l-5.545-16.728h-14.509V293.182z M380.671,275.716c0-11.136-6.285-18.112-16.681-18.112c-10.397,0-16.682,6.977-16.682,18.112
		c0,11.137,6.284,18.113,16.682,18.113C374.386,293.829,380.671,286.853,380.671,275.716 M363.99,264.534
		c3.881,0,6.145,2.31,6.145,11.182c0,9.38-2.771,11.183-6.145,11.183c-3.419,0-6.146-1.803-6.146-11.183
		C357.844,267.26,359.97,264.534,363.99,264.534 M315.348,293.182h9.98v-8.871l4.529-6.054l6.885,14.925h10.673l-10.858-23.381
		l8.595-11.552h-9.519l-10.212,14.001h-0.093v-14.001h-9.98V293.182z M291.922,263.102c-3.096-4.021-8.087-5.498-12.984-5.498
		c-8.363,0-14.047,4.666-14.047,11.505c0,13.215,18.899,9.148,18.899,14.463c0,1.524-1.571,3.05-5.498,3.05
		c-3.559,0-6.607-1.571-8.78-4.251l-6.007,4.667c3.697,5.313,9.195,6.792,15.434,6.792c10.211,0,14.832-5.868,14.832-11.644
		c0-14.232-19.176-9.242-19.176-14.88c0-1.616,1.711-2.494,4.205-2.494c3.049,0,5.36,0.878,7.301,3.096L291.922,263.102z
		 M229.976,293.182h13.216c15.202,0,18.667-9.888,18.667-17.696c0-9.842-6.145-17.236-17.79-17.236h-14.093V293.182z
		 M239.957,264.903h3.142c6.146,0,8.225,5.175,8.225,10.536c0,8.178-4.02,11.089-8.733,11.089h-2.634V264.903z M192.405,293.182
		h7.902l2.264-6.653h11.921l2.08,6.653h10.396l-11.967-34.933h-10.767L192.405,293.182z M208.624,267.907h0.092l3.512,11.413h-7.439
		L208.624,267.907z M175.429,293.182h9.981v-28.001h9.611v-6.932h-29.203v6.932h9.611V293.182z M162.303,263.102
		c-3.096-4.021-8.087-5.498-12.985-5.498c-8.363,0-14.047,4.666-14.047,11.505c0,13.215,18.899,9.148,18.899,14.463
		c0,1.524-1.571,3.05-5.498,3.05c-3.558,0-6.608-1.571-8.78-4.251l-6.007,4.667c3.697,5.313,9.195,6.792,15.433,6.792
		c10.212,0,14.833-5.868,14.833-11.644c0-14.232-19.176-9.242-19.176-14.88c0-1.616,1.71-2.494,4.205-2.494
		c3.049,0,5.36,0.878,7.301,3.096L162.303,263.102z M106.942,293.182h24.582v-7.484h-14.601v-27.448h-9.981V293.182z
		 M81.796,264.903h5.591c3.096,0,4.528,1.57,4.528,3.789c0,2.264-2.079,3.512-4.944,3.512h-5.175V264.903z M71.815,293.182h9.981
		v-14.323h4.528l4.944,14.323h11.09l-6.515-16.079c3.881-1.525,6.608-4.437,6.608-8.779c0-4.529-2.265-10.074-13.909-10.074H71.815
		V293.182z M34.106,293.182h7.901l2.264-6.653h11.922l2.079,6.653h10.397l-11.968-34.933H45.935L34.106,293.182z M50.324,267.907
		h0.093l3.511,11.413h-7.439L50.324,267.907z M0,293.182h9.981v-8.871l4.528-6.054l6.885,14.925h10.674l-10.859-23.381l8.595-11.552
		h-9.519L10.073,272.25H9.981v-14.001H0V293.182z"/>
</g>
</svg>
